<mxfile host="65bd71144e">
    <diagram id="ZIqXg70r5VJtl03KHkWE" name="Page-1">
        <mxGraphModel dx="590" dy="423" grid="1" gridSize="10" guides="1" tooltips="1" connect="1" arrows="1" fold="1" page="1" pageScale="1" pageWidth="827" pageHeight="1169" math="0" shadow="0">
            <root>
                <mxCell id="0"/>
                <mxCell id="1" parent="0"/>
                <mxCell id="2" value="Player Phone" style="swimlane;startSize=20;" vertex="1" parent="1">
                    <mxGeometry x="80" y="200" width="120" height="130" as="geometry"/>
                </mxCell>
                <mxCell id="3" value="Player Location&lt;br&gt;Other Stuff&lt;br&gt;Random Shit&lt;br&gt;Doo Doo Kaka" style="text;html=1;strokeColor=none;fillColor=none;align=left;verticalAlign=middle;whiteSpace=wrap;rounded=0;" vertex="1" parent="2">
                    <mxGeometry y="20" width="120" height="100" as="geometry"/>
                </mxCell>
            </root>
        </mxGraphModel>
    </diagram>
</mxfile>